<svg id="facebook_2_" data-name="facebook (2)" xmlns="http://www.w3.org/2000/svg" viewBox="0 0 14.232 14.232">
  <defs>
    <style>
      .cls-1 {
        fill: #fff;
      }
    </style>
  </defs>
  <g id="Groupe_6" data-name="Groupe 6">
    <path id="Tracé_4" data-name="Tracé 4" class="cls-1" d="M12.453,0H1.779A1.781,1.781,0,0,0,0,1.779V12.453a1.781,1.781,0,0,0,1.779,1.779H7.116V9.34H5.337V7.116H7.116V5.337A2.668,2.668,0,0,1,9.785,2.669h1.779V4.892h-.89c-.491,0-.89-.046-.89.445V7.116h2.224l-.89,2.224H9.785v4.892h2.669a1.781,1.781,0,0,0,1.779-1.779V1.779A1.781,1.781,0,0,0,12.453,0Z"/>
  </g>
</svg>
