<svg id="twitter_1_" data-name="twitter (1)" xmlns="http://www.w3.org/2000/svg" viewBox="0 0 14.232 11.564">
  <defs>
    <style>
      .cls-1 {
        fill: #fff;
      }
    </style>
  </defs>
  <g id="Groupe_13" data-name="Groupe 13" transform="translate(0)">
    <path id="Tracé_7" data-name="Tracé 7" class="cls-1" d="M14.232,49.369a6.083,6.083,0,0,1-1.681.461,2.9,2.9,0,0,0,1.284-1.613,5.831,5.831,0,0,1-1.85.706,2.918,2.918,0,0,0-5.047,2A3,3,0,0,0,7,51.584,8.259,8.259,0,0,1,.991,48.532a2.919,2.919,0,0,0,.9,3.9,2.882,2.882,0,0,1-1.318-.359V52.1a2.931,2.931,0,0,0,2.338,2.867,2.912,2.912,0,0,1-.765.1,2.58,2.58,0,0,1-.552-.05A2.946,2.946,0,0,0,4.316,57.05,5.863,5.863,0,0,1,.7,58.294a5.466,5.466,0,0,1-.7-.04,8.214,8.214,0,0,0,4.476,1.309,8.247,8.247,0,0,0,8.3-8.3c0-.129,0-.254-.011-.377A5.821,5.821,0,0,0,14.232,49.369Z" transform="translate(0 -48)"/>
  </g>
</svg>
