<svg xmlns="http://www.w3.org/2000/svg" viewBox="0 0 132.775 120.409">
  <defs>
    <style>
      .cls-1 {
        opacity: 0.05;
      }

      .cls-2 {
        fill: #fff;
      }
    </style>
  </defs>
  <g id="Groupe_37" data-name="Groupe 37" class="cls-1">
    <g id="Groupe_22" data-name="Groupe 22" transform="translate(58.33 20.937)">
      <g id="Groupe_21" data-name="Groupe 21">
        <path id="Tracé_46" data-name="Tracé 46" class="cls-2" d="M180.448,94.6a6.948,6.948,0,1,0,6.948,6.948A6.945,6.945,0,0,0,180.448,94.6Zm0,9.874a2.926,2.926,0,1,1,2.926-2.926A2.888,2.888,0,0,1,180.448,104.474Z" transform="translate(-173.5 -94.6)"/>
      </g>
    </g>
    <g id="Groupe_24" data-name="Groupe 24" transform="translate(63.267 41.599)">
      <g id="Groupe_23" data-name="Groupe 23">
        <path id="Tracé_47" data-name="Tracé 47" class="cls-2" d="M178.211,105.9a2.029,2.029,0,0,0-2.011,2.011v21.76a2.011,2.011,0,0,0,4.023,0v-21.76A2.029,2.029,0,0,0,178.211,105.9Z" transform="translate(-176.2 -105.9)"/>
      </g>
    </g>
    <g id="Groupe_26" data-name="Groupe 26" transform="translate(0 102.672)">
      <g id="Groupe_25" data-name="Groupe 25">
        <path id="Tracé_48" data-name="Tracé 48" class="cls-2" d="M272.523,153.014h-3.474a9.2,9.2,0,0,0,1.463-4.937,8.9,8.9,0,0,0-8.777-8.777,2.011,2.011,0,1,0,0,4.023,4.937,4.937,0,0,1,0,9.874H249.3a9.2,9.2,0,0,0,1.463-4.937,2.011,2.011,0,0,0-4.023,0A4.916,4.916,0,0,1,241.8,153.2H211.45a3.862,3.862,0,0,1-3.84-3.84v-.549a2.011,2.011,0,1,0-4.023,0v.549a6.76,6.76,0,0,0,1.1,3.84H177.074a4.916,4.916,0,0,1-4.937-4.937,2.011,2.011,0,0,0-4.023,0,9.2,9.2,0,0,0,1.463,4.937H153.668a4.937,4.937,0,0,1,0-9.874,2.011,2.011,0,1,0,0-4.023,8.9,8.9,0,0,0-8.777,8.777,9.2,9.2,0,0,0,1.463,4.937h-2.011c-.183,0-.549-.183-.731-.183a2.029,2.029,0,0,0-2.011,2.011v.183a2.029,2.029,0,0,0,2.011,2.011H272.34a2.029,2.029,0,0,0,2.011-2.011A1.879,1.879,0,0,0,272.523,153.014Z" transform="translate(-141.6 -139.3)"/>
      </g>
    </g>
    <g id="Groupe_28" data-name="Groupe 28" transform="translate(2.194)">
      <g id="Groupe_27" data-name="Groupe 27">
        <path id="Tracé_49" data-name="Tracé 49" class="cls-2" d="M235.872,144.314l-14.08-16.274V110.487a32.047,32.047,0,0,0-14.811-27.062,2.331,2.331,0,0,0-2.194,0,32.481,32.481,0,0,0-14.811,27.062,2.011,2.011,0,0,0,4.023,0,28.176,28.176,0,0,1,11.885-23.04,28.176,28.176,0,0,1,11.885,23.04v43.885H194V119.446a2.011,2.011,0,0,0-4.023,0v8.594L175.9,144.314a7.966,7.966,0,0,0-2.011,5.3v5.668a3.082,3.082,0,0,0,3.109,3.108h16.822v4.571a2.918,2.918,0,0,0,1.463,2.56v7.5a15.722,15.722,0,0,0-7.131-1.646,16.111,16.111,0,0,0-14.811,9.874,8.9,8.9,0,0,0-2.194-.183,12.115,12.115,0,0,0-6.583,2.011,19.855,19.855,0,0,0-19.748-18.834,2.011,2.011,0,1,0,0,4.023,15.92,15.92,0,0,1,15.908,15.908v1.1a1.782,1.782,0,0,0,.731,1.646l.183.183a2.915,2.915,0,0,0,2.194.731,3.514,3.514,0,0,0,2.194-.731,7.966,7.966,0,0,1,5.3-2.011,6.22,6.22,0,0,1,1.829.183,3.448,3.448,0,0,0,3.84-2.011A12.238,12.238,0,0,1,188.33,175.4a11.044,11.044,0,0,1,5.486,1.28,3.828,3.828,0,0,0,5.486-3.291v-7.5h12.434v8.777a3.454,3.454,0,0,0,2.011,3.291,3.306,3.306,0,0,0,3.84-.366,11.636,11.636,0,0,1,6.948-2.194,10.355,10.355,0,0,1,3.291.549,1.909,1.909,0,0,0,1.1-3.657,18.357,18.357,0,0,0-4.388-.731,15.689,15.689,0,0,0-8.96,2.743v-8.411a2.921,2.921,0,0,0,2.377-2.743v-4.571h16.823a3.082,3.082,0,0,0,3.108-3.109V149.8A10.435,10.435,0,0,0,235.872,144.314Zm-45.713,10.057H178.091v-4.754a4.032,4.032,0,0,1,1.1-2.743l11.154-12.8v20.3Zm13.9,7.314h-6.217v-3.474h6.217Zm10.057,0H207.9v-3.474h6.217Zm19.748-7.314H221.793v-20.3l11.154,12.8a3.721,3.721,0,0,1,1.1,2.743v4.754Z" transform="translate(-142.8 -83.15)"/>
      </g>
    </g>
    <g id="Groupe_30" data-name="Groupe 30" transform="translate(92.607 80.73)">
      <g id="Groupe_29" data-name="Groupe 29">
        <path id="Tracé_50" data-name="Tracé 50" class="cls-2" d="M230.562,127.3a19.618,19.618,0,0,0-18.468,12.617,10.1,10.1,0,0,0-5.3,3.291,11.1,11.1,0,0,0-8.228-3.657,18.017,18.017,0,0,0-3.109.366,1.768,1.768,0,0,0-2.56,0,2,2,0,0,0-.183,2.743,3.7,3.7,0,0,0,3.84,1.1,9.431,9.431,0,0,1,2.011-.366,6.855,6.855,0,0,1,5.486,2.56,3.889,3.889,0,0,0,2.743,1.28h0a3.889,3.889,0,0,0,2.743-1.28,8.27,8.27,0,0,1,4.389-2.56,1.772,1.772,0,0,0,1.463-1.28,15.863,15.863,0,0,1,14.994-10.971,2.029,2.029,0,0,0,2.011-2.011A1.722,1.722,0,0,0,230.562,127.3Z" transform="translate(-192.245 -127.3)"/>
      </g>
    </g>
    <g id="Groupe_32" data-name="Groupe 32" transform="translate(76.175 98.404)">
      <g id="Groupe_31" data-name="Groupe 31">
        <path id="Tracé_51" data-name="Tracé 51" class="cls-2" d="M201.985,143.977a9.769,9.769,0,0,0-4.937-5.851,10.2,10.2,0,0,0-7.68-.731,9.768,9.768,0,0,0-5.851,4.937,1.883,1.883,0,0,0,3.291,1.829,5.388,5.388,0,0,1,3.657-2.926,6.115,6.115,0,0,1,4.754.366,5.388,5.388,0,0,1,2.926,3.657,6.115,6.115,0,0,1-.366,4.754,1.808,1.808,0,0,0,.731,2.56,1.649,1.649,0,0,0,.914.183,1.6,1.6,0,0,0,1.646-1.1A8.816,8.816,0,0,0,201.985,143.977Z" transform="translate(-183.259 -136.966)"/>
      </g>
    </g>
    <g id="Groupe_34" data-name="Groupe 34" transform="translate(40.951 100.104)">
      <g id="Groupe_33" data-name="Groupe 33">
        <path id="Tracé_52" data-name="Tracé 52" class="cls-2" d="M177.169,141.744a6.375,6.375,0,0,0-4.023-3.474,6.726,6.726,0,0,0-5.3.366,6.375,6.375,0,0,0-3.474,4.023,6.726,6.726,0,0,0,.366,5.3,2.011,2.011,0,0,0,1.829,1.1,1.648,1.648,0,0,0,.914-.183,2.1,2.1,0,0,0,.914-2.56,3.058,3.058,0,0,1-.183-2.194,2.6,2.6,0,0,1,1.463-1.646,3.058,3.058,0,0,1,2.194-.183,2.6,2.6,0,0,1,1.646,1.463,2.1,2.1,0,0,0,2.56.914C177.169,143.938,177.718,142.658,177.169,141.744Z" transform="translate(-163.995 -137.895)"/>
      </g>
    </g>
    <g id="Groupe_36" data-name="Groupe 36" transform="translate(62.353 89.69)">
      <g id="Groupe_35" data-name="Groupe 35">
        <path id="Tracé_53" data-name="Tracé 53" class="cls-2" d="M177.711,132.2a2.029,2.029,0,0,0-2.011,2.011v10.423a2.011,2.011,0,1,0,4.023,0V134.211A2.321,2.321,0,0,0,177.711,132.2Z" transform="translate(-175.7 -132.2)"/>
      </g>
    </g>
  </g>
</svg>
