<svg xmlns="http://www.w3.org/2000/svg" viewBox="0 0 14.23 9.783">
  <defs>
    <style>
      .cls-1 {
        fill: #fff;
      }
    </style>
  </defs>
  <g id="youtube_1_" data-name="youtube (1)" transform="translate(0 -80)">
    <g id="Groupe_14" data-name="Groupe 14" transform="translate(0 80)">
      <path id="Tracé_8" data-name="Tracé 8" class="cls-1" d="M13.625,80.943c-.386-.687-.8-.813-1.658-.861S8.973,80,7.117,80s-4,.024-4.854.081-1.271.174-1.66.862A8.393,8.393,0,0,0,0,84.889V84.9a8.363,8.363,0,0,0,.6,3.939c.39.687.808.811,1.66.869s3,.079,4.855.079,4-.029,4.852-.078,1.272-.182,1.658-.869a8.31,8.31,0,0,0,.6-3.939V84.89A8.327,8.327,0,0,0,13.625,80.943ZM5.336,87.56V82.223l4.447,2.668Z" transform="translate(0 -80)"/>
    </g>
  </g>
</svg>
