<svg xmlns="http://www.w3.org/2000/svg" viewBox="0 0 19.535 15.872">
  <defs>
    <style>
      .cls-1 {
        fill: #2b2b2b;
      }
    </style>
  </defs>
  <path id="Tracé_7" data-name="Tracé 7" class="cls-1" d="M19.535,1.879a8.35,8.35,0,0,1-2.308.632A3.982,3.982,0,0,0,18.99.3a8,8,0,0,1-2.54.969A4,4,0,0,0,9.522,4.006a4.124,4.124,0,0,0,.093.913A11.336,11.336,0,0,1,1.36.73,4.006,4.006,0,0,0,2.591,6.083,3.955,3.955,0,0,1,.781,5.59v.044A4.023,4.023,0,0,0,3.99,9.569,4,4,0,0,1,2.94,9.7a3.541,3.541,0,0,1-.758-.068,4.043,4.043,0,0,0,3.742,2.79A8.047,8.047,0,0,1,.958,14.13,7.5,7.5,0,0,1,0,14.075a11.275,11.275,0,0,0,6.144,1.8,11.32,11.32,0,0,0,11.4-11.4c0-.177-.006-.348-.015-.518A7.99,7.99,0,0,0,19.535,1.879Z" transform="translate(0 0)"/>
</svg>
